. 
 
http://www.torrenting.com          :     Once & For all ;)


               www . Torrenting . Com 

(((((((((((((= Enjoy No RAR releases =))))))))))))))))))))


...................................NFO:....................................

.[IMG]http://img560.imageshack.us/img560/790/towerheistposter4.jpg[/IMG]

Complete name                    : Tower.Heist.2011.BRRip.x264.AC3-DTRG.mkv
Format                           : Matroska
Format version                   : Version 2
File size                        : 697 MiB
Duration                         : 1h 44mn
Overall bit rate                 : 932 Kbps
Encoded date                     : UTC 2012-02-09 21:20:21
Writing application              : mkvmerge v5.2.1 ('A Far Off Place') built on Jan  2 2012 23:21:10
Writing library                  : libebml v1.2.3 + libmatroska v1.3.0


Video
ID                               : 1
Format                           : AVC
Format/Info                      : Advanced Video Codec
Format profile                   : High@L4.1
Format settings, CABAC           : Yes
Format settings, ReFrames        : 4 frames
Muxing mode                      : Header stripping
Codec ID                         : V_MPEG4/ISO/AVC
Duration                         : 1h 44mn
Bit rate                         : 803 Kbps
Width                            : 720 pixels
Height                           : 304 pixels
Display aspect ratio             : 2.35:1
Frame rate                       : 23.976 fps
Color space                      : YUV
Chroma subsampling               : 4:2:0
Bit depth                        : 8 bits
Scan type                        : Progressive
Bits/(Pixel*Frame)               : 0.153
Stream size                      : 587 MiB (84%)
Writing library                  : x264 core 116 r2074 2641b9e
Language                         : English
Default                          : Yes
Forced                           : No
Source                           : 720p AMi, cheers...

Audio
ID                               : 2
Format                           : AC-3
Format/Info                      : Audio Coding 3
Mode extension                   : CM (complete main)
Muxing mode                      : Header stripping
Codec ID                         : A_AC3
Duration                         : 1h 44mn
Bit rate mode                    : Constant
Bit rate                         : 128 Kbps
Channel(s)                       : 2 channels
Channel positions                : Front: L R
Sampling rate                    : 48.0 KHz
Bit depth                        : 16 bits
Compression mode                 : Lossy
Stream size                      : 95.7 MiB (14%)
Default                          : Yes
Forced                           : No
Source                           : 720p AMi, cheers...

iMDB: http://www.imdb.com/title/tt0471042/

Encoder: Kareemzos..

DTRG bringing the p2p world yet another release, Tower Heist 2011 BRRip.....

straight forward encode tbh, sharpened and x264'd it...
left colors untouched because its bluray...
check the sample before downloading because the screens cant tell you the real Q of
the release, enjoy folks.....

[b][i][size=6]SCREENSHOTS:[/b][/i][/size]

[IMG]http://img32.imageshack.us/img32/7799/53438651.png[/IMG]
[IMG]http://img819.imageshack.us/img819/718/89221271.png[/IMG]
[IMG]http://img846.imageshack.us/img846/7555/38889421.png[/IMG]
[IMG]http://img29.imageshack.us/img29/6764/32799635.png[/IMG]
[IMG]http://img850.imageshack.us/img850/1485/47537831.png[/IMG]
[IMG]http://img577.imageshack.us/img577/3825/19641543.png[/IMG]
[IMG]http://img43.imageshack.us/img43/8651/54957100.png[/IMG]
[IMG]http://img21.imageshack.us/img21/5116/54576818.png[/IMG]
[IMG]http://img862.imageshack.us/img862/3910/88891186.png[/IMG]
[IMG]http://img825.imageshack.us/img825/3008/73898747.png[/IMG]
[IMG]http://img542.imageshack.us/img542/7148/43287477.png[/IMG]
[IMG]http://img221.imageshack.us/img221/9585/13552914.png[/IMG]
[IMG]http://img94.imageshack.us/img94/3168/19599667.png[/IMG]

Greetz to EMBER, ETRG, BHRG, FYA, 26k, CreWSaDe, RemixHD, LEGiTiMATE.......and maybe many more...........